<?xml version="1.0" encoding="utf-8"?>
<!-- Generator: Adobe Illustrator 17.0.0, SVG Export Plug-In . SVG Version: 6.00 Build 0)  -->
<!DOCTYPE svg PUBLIC "-//W3C//DTD SVG 1.1//EN" "http://www.w3.org/Graphics/SVG/1.1/DTD/svg11.dtd">
<svg version="1.1" id="Layer_1" xmlns="http://www.w3.org/2000/svg" xmlns:xlink="http://www.w3.org/1999/xlink" x="0px" y="0px"
	 width="1143.885px" height="312.619px" viewBox="0 0 1143.885 312.619" enable-background="new 0 0 1143.885 312.619"
	 xml:space="preserve">
<g>
	<path d="M1065.689,195.05h-15.764v-13.04l-0.349-1.429c-3.154,4.526-7.094,8.174-11.824,10.946
		c-4.729,2.77-10.071,4.157-16.027,4.157c-6.305,0-11.884-1.161-16.728-3.479c-4.847-2.317-8.933-5.456-12.261-9.417
		c-3.328-3.959-5.868-8.541-7.619-13.746c-1.752-5.203-2.628-10.633-2.628-16.291c0-5.431,0.903-10.661,2.714-15.697
		c1.809-5.033,4.38-9.445,7.707-13.236c3.328-3.79,7.385-6.844,12.175-9.164c4.786-2.318,10.159-3.479,16.115-3.479
		c6.07,0,11.5,1.417,16.289,4.243c4.787,2.829,8.815,6.617,12.087,11.369l0.349-1.402v-13.932h15.764V195.05z M1021.761,180.675
		c4.103,0,7.71-0.726,10.816-2.177c3.104-1.451,5.741-3.438,7.904-5.965c2.163-2.523,3.799-5.426,4.909-8.705
		c1.108-3.278,1.665-6.797,1.665-10.56c0-3.653-0.556-7.118-1.665-10.398c-1.11-3.277-2.746-6.151-4.909-8.625
		c-2.163-2.471-4.825-4.433-7.987-5.884c-3.161-1.451-6.739-2.176-10.733-2.176c-3.884,0-7.35,0.753-10.4,2.257
		c-3.053,1.507-5.631,3.521-7.737,6.046c-2.109,2.527-3.718,5.4-4.827,8.625c-1.109,3.224-1.663,6.609-1.663,10.156
		c0,3.547,0.554,6.96,1.663,10.238c1.108,3.28,2.689,6.207,4.743,8.786c2.052,2.579,4.602,4.622,7.655,6.126
		C1014.246,179.924,1017.768,180.675,1021.761,180.675z"/>
	<path d="M24.28,118.871h0.347c2.542-3.815,5.779-6.531,9.711-8.152c3.929-1.617,8.092-2.428,12.487-2.428
		c5.663,0,10.405,0.954,14.22,2.862c3.815,1.908,6.851,4.482,9.106,7.718c2.255,3.238,3.842,7.024,4.769,11.359
		c0.923,4.335,1.387,8.991,1.387,13.961v52.028H52.028v-42.683c0-2.542-0.06-5.202-0.174-7.978c-0.116-2.774-0.55-5.289-1.301-7.544
		c-0.753-2.255-2.024-4.132-3.815-5.636c-1.794-1.502-4.422-2.255-7.891-2.255c-3.585,0-6.36,0.897-8.325,2.687
		c-1.968,1.795-3.412,4.019-4.335,6.678c-0.927,2.66-1.475,5.522-1.648,8.585c-0.174,3.064-0.26,5.869-0.26,8.41v39.734H0v-85.152
		h24.28V118.871z"/>
	<path d="M507.009,195.05h-15.764v-13.04l-0.349-1.429c-3.154,4.526-7.094,8.174-11.824,10.946
		c-4.729,2.77-10.071,4.157-16.027,4.157c-6.305,0-11.884-1.161-16.728-3.479c-4.847-2.317-8.933-5.456-12.261-9.417
		c-3.328-3.959-5.868-8.541-7.619-13.746c-1.752-5.203-2.628-10.633-2.628-16.291c0-5.431,0.903-10.661,2.714-15.697
		c1.809-5.033,4.38-9.445,7.707-13.236c3.328-3.79,7.385-6.844,12.175-9.164c4.786-2.318,10.159-3.479,16.115-3.479
		c6.07,0,11.5,1.417,16.289,4.243c4.787,2.829,8.815,6.617,12.087,11.369l0.349-1.402v-13.932h15.764V195.05z M463.081,180.675
		c4.103,0,7.71-0.726,10.817-2.177c3.104-1.451,5.741-3.438,7.904-5.965c2.163-2.523,3.798-5.426,4.909-8.705
		c1.108-3.278,1.665-6.797,1.665-10.56c0-3.653-0.556-7.118-1.665-10.398c-1.11-3.277-2.746-6.151-4.909-8.625
		c-2.163-2.471-4.825-4.433-7.987-5.884c-3.161-1.451-6.739-2.176-10.733-2.176c-3.884,0-7.35,0.753-10.4,2.257
		c-3.053,1.507-5.631,3.521-7.737,6.046c-2.109,2.527-3.718,5.4-4.827,8.625c-1.109,3.224-1.663,6.609-1.663,10.156
		c0,3.547,0.554,6.96,1.663,10.238c1.108,3.28,2.689,6.207,4.743,8.786c2.052,2.579,4.602,4.622,7.655,6.126
		C455.565,179.924,459.087,180.675,463.081,180.675z"/>
	<path d="M650.894,40h15.764v85.385l0.35,1.402c3.268-4.752,7.296-8.54,12.086-11.369c4.787-2.826,10.275-4.243,16.465-4.243
		c5.956,0,11.298,1.161,16.028,3.479c4.729,2.32,8.757,5.374,12.086,9.164c3.328,3.791,5.895,8.203,7.707,13.236
		c1.809,5.036,2.716,10.267,2.716,15.697c0,5.659-0.877,11.088-2.628,16.291c-1.752,5.204-4.292,9.787-7.619,13.746
		c-3.328,3.961-7.417,7.101-12.261,9.417c-4.848,2.318-10.422,3.479-16.728,3.479c-5.841,0-11.153-1.387-15.94-4.157
		c-4.79-2.771-8.758-6.419-11.911-10.946l-0.35,1.429v13.04h-15.764V40z M694.156,180.675c4.103,0,7.71-0.726,10.817-2.177
		c3.104-1.451,5.741-3.438,7.904-5.965c2.163-2.523,3.798-5.426,4.909-8.705c1.108-3.278,1.664-6.797,1.664-10.56
		c0-3.653-0.556-7.118-1.664-10.398c-1.11-3.277-2.746-6.151-4.909-8.625c-2.163-2.471-4.825-4.433-7.987-5.884
		c-3.161-1.451-6.739-2.176-10.733-2.176c-3.884,0-7.35,0.753-10.4,2.257c-3.053,1.507-5.631,3.521-7.737,6.046
		c-2.109,2.527-3.718,5.4-4.827,8.625c-1.109,3.224-1.663,6.609-1.663,10.156c0,3.547,0.554,6.96,1.663,10.238
		c1.108,3.28,2.689,6.207,4.743,8.786c2.052,2.579,4.602,4.622,7.655,6.126C686.639,179.924,690.162,180.675,694.156,180.675z"/>
	<path d="M753.597,72.102c3.035,0,5.606,1.102,7.707,3.305c2.101,2.205,3.153,4.854,3.153,7.949c0,3.098-1.051,5.689-3.153,7.77
		c-2.101,2.085-4.672,3.127-7.707,3.127c-3.039,0-5.606-1.042-7.707-3.127c-2.103-2.081-3.153-4.672-3.153-7.77
		c0-3.095,1.05-5.744,3.153-7.949C747.991,73.204,750.558,72.102,753.597,72.102z M761.478,195.05h-15.764v-83.598h15.764V195.05z"
		/>
	<path d="M786.43,155.805c0,3.394,0.583,6.677,1.751,9.843c1.167,3.168,2.831,5.968,4.993,8.4c2.16,2.434,4.756,4.385,7.795,5.854
		c3.035,1.472,6.421,2.206,10.159,2.206c6.07,0,10.918-1.384,14.539-4.158c3.618-2.771,6.947-6.533,9.984-11.285l13.311,7.297
		c-3.854,6.902-9.137,12.247-15.851,16.037c-6.716,3.789-14.1,5.684-22.158,5.684c-6.306,0-11.942-1.076-16.904-3.223
		c-4.964-2.149-9.168-5.091-12.612-8.825c-3.445-3.733-6.103-8.146-7.969-13.237c-1.869-5.09-2.802-10.576-2.802-16.46
		c0-6.109,0.846-11.765,2.54-16.969c1.692-5.203,4.204-9.729,7.532-13.576c3.327-3.845,7.471-6.844,12.436-8.994
		c4.962-2.147,10.772-3.225,17.429-3.225c6.538,0,12.201,1.104,16.99,3.31c4.787,2.206,8.758,5.204,11.911,8.994
		c3.153,3.791,5.517,8.26,7.094,13.406c1.578,5.149,2.364,10.664,2.364,16.546v2.375H786.43z M833.198,144.266
		c-0.936-5.995-3.358-10.802-7.27-14.425c-3.913-3.619-9.021-5.43-15.326-5.43c-6.191,0-11.386,1.867-15.59,5.6
		c-4.204,3.733-6.773,8.485-7.707,14.254H833.198z"/>
	<path d="M878.214,122.705h0.349c2.452-4.523,5.493-7.681,10.101-9.766c4.714-2.132,9.878-1.765,14.901-1.765
		c5.718,0,10.176,1.181,13.973,3.026c3.792,1.847,6.771,4.407,8.933,7.68c2.16,3.277,3.678,7.118,4.554,11.522
		c0.874,4.407,1.314,9.172,1.314,14.291v47.356h-15.766v-45.391c0-3.572-0.176-6.817-0.525-9.736
		c-0.352-2.916-1.169-5.448-2.452-7.591c-1.288-2.144-3.127-3.78-5.519-4.912c-2.395-1.131-5.576-1.697-9.546-1.697
		c-5.139,0-9.08,1.043-11.824,3.125c-2.744,2.085-4.728,4.734-5.954,7.949c-1.226,3.215-1.958,6.787-2.19,10.717
		c-0.235,3.93-0.349,7.801-0.349,11.611v35.924h-15.766v-83.598h15.766V122.705z"/>
	<path d="M964.798,195.05h-15.763v-68.593h-8.584v-15.004h8.584V79.477h15.763v31.975h15.414v15.004h-15.414V195.05z"/>
	<path d="M1097.784,195.05h-15.766V40h15.766V195.05z"/>
	<path d="M130.329,110.218c6.01,0,11.677,1.101,16.996,3.295c5.316,2.197,9.912,5.233,13.788,9.104
		c3.872,3.875,6.937,8.441,9.191,13.701c2.255,5.263,3.381,10.956,3.381,17.083c0,6.129-1.127,11.822-3.381,17.082
		c-2.255,5.263-5.32,9.829-9.191,13.701c-3.875,3.875-8.472,6.91-13.788,9.106c-5.32,2.195-10.986,3.294-16.996,3.294
		c-6.13,0-11.822-1.1-17.082-3.294c-5.263-2.196-9.829-5.23-13.701-9.106c-3.875-3.872-6.938-8.437-9.191-13.701
		c-2.255-5.26-3.383-10.953-3.383-17.082c0-6.128,1.128-11.82,3.383-17.083c2.253-5.26,5.316-9.825,9.191-13.701
		c3.872-3.872,8.437-6.907,13.701-9.104C118.506,111.319,124.199,110.218,130.329,110.218z M130.329,130.786
		c-3.052,0-5.944,0.603-8.671,1.804c-2.73,1.203-5.087,2.823-7.076,4.856c-1.99,2.036-3.562,4.44-4.718,7.215
		c-1.157,2.775-1.734,5.689-1.734,8.741c0,3.052,0.577,5.944,1.734,8.671c1.155,2.729,2.728,5.134,4.718,7.214
		c1.988,2.081,4.346,3.725,7.076,4.926c2.728,1.203,5.619,1.804,8.671,1.804c3.052,0,5.942-0.6,8.671-1.804
		c2.728-1.201,5.086-2.844,7.076-4.926c1.988-2.08,3.56-4.485,4.718-7.214c1.155-2.728,1.734-5.619,1.734-8.671
		c0-3.052-0.579-5.966-1.734-8.741c-1.157-2.775-2.73-5.179-4.718-7.215c-1.99-2.033-4.348-3.653-7.076-4.856
		C136.271,131.389,133.381,130.786,130.329,130.786z"/>
	<path d="M244.095,188.241h-0.347c-2.544,3.468-3.52,4.094-8.098,5.849c-4.579,1.755-9.285,2.636-14.117,2.636
		c-6.868,0-12.972-1.236-18.314-3.706c-5.342-2.472-9.857-5.739-13.544-9.803c-3.691-4.063-6.487-8.704-8.394-13.922
		c-1.908-5.216-2.862-10.57-2.862-16.064c0-5.38,0.953-10.627,2.862-15.734c1.907-5.107,4.703-9.664,8.394-13.675
		c3.687-4.008,8.17-7.221,13.448-9.638c5.276-2.415,11.285-3.625,18.028-3.625c4.832,0,9.568,0.88,14.212,2.636
		c4.642,1.759,5.725,2.324,8.386,5.676h0.347V49.153h24.28v147.066h-24.28V188.241z M222.819,176.296
		c3.435,0,6.517-0.685,9.253-2.059c2.734-1.372,5.056-3.131,6.963-5.273c1.908-2.142,3.369-4.556,4.388-7.249
		c1.016-2.691,1.525-5.409,1.525-8.155c0-2.744-0.51-5.463-1.525-8.155c-1.019-2.69-2.48-5.107-4.388-7.249
		c-1.907-2.142-4.229-3.873-6.963-5.19c-2.736-1.318-5.818-1.978-9.253-1.978c-3.434,0-6.518,0.659-9.251,1.978
		c-2.736,1.317-5.056,3.048-6.963,5.19c-1.908,2.142-3.371,4.559-4.388,7.249c-1.019,2.693-1.525,5.411-1.525,8.155
		c0,2.746,0.506,5.465,1.525,8.155c1.017,2.693,2.48,5.107,4.388,7.249c1.907,2.142,4.227,3.901,6.963,5.273
		C216.301,175.611,219.385,176.296,222.819,176.296z"/>
	<path d="M636.683,133.201c-0.833-4.403-2.275-8.245-4.327-11.522c-2.054-3.273-4.884-5.833-8.486-7.68
		c-3.607-1.845-7.842-3.026-13.274-3.026c-4.771,0-9.184-0.522-14.336,1.183c-2.215,0.733-3.711,1.672-5.633,2.843
		c-2.049,1.249-4.653,3.5-6.414,5.548c-1.483,1.724-3.649,5.306-3.649,5.306c-0.147-0.264-1.138-2.824-2.493-5.2
		c-0.766-1.344-1.815-2.626-2.817-3.845c-1.455-1.771-2.702-2.693-3.553-3.238c-0.931-0.596-1.766-1.169-4.51-1.828
		c-2.477-0.595-5.134-0.969-10.112-0.969c-4.771,0-7.547-0.168-12.025,1.964c-4.378,2.084-7.267,5.242-9.596,9.766h-0.332V111.25
		h-14.977v83.598h14.977v-34.723c0-3.81,0.108-7.682,0.332-11.611c0.221-3.93,0.414-7.313,1.579-10.528
		c1.165-3.215,3.049-5.864,5.656-7.949c2.607-2.082,6.853-3.315,11.735-3.315c3.771,0,6.794,0.566,9.069,1.697
		c2.273,1.133,4.02,2.768,5.243,4.912c1.219,2.143,1.995,4.675,2.329,7.591c0.29,2.55,0.43,5.395,0.467,8.443v45.482l0.032,1.202
		h14.946l0.032-1.202v-36.94c0.034-3.096,0.12-6.221,0.3-9.394c0.221-3.93,0.378-7.352,1.543-10.567
		c1.165-3.215,3.049-5.864,5.656-7.949c2.607-2.082,6.889-3.276,11.771-3.276c3.771,0,6.794,0.566,9.069,1.697
		c2.273,1.133,4.02,2.768,5.243,4.912c1.219,2.143,1.995,4.675,2.329,7.591c0.332,2.919,0.499,6.164,0.499,9.736v44.19h14.977
		v-47.356C637.931,142.373,637.514,137.608,636.683,133.201z"/>
	<g>
		<path d="M1121.283,36.637c-8.699-2.73-20.725-1.264-26.894,9.238c-1.734,2.953-3.029,6.077-4.102,9.333
			c-0.291-0.147-0.505-0.201-0.507-0.263c-0.2-5.507,0.507-10.818,3.111-15.797c3.338-6.382,8.621-9.988,15.59-11.337
			c5.728-1.109,11.533-1.106,17.328-1.251c2.9-0.073,5.797-0.177,8.679-0.525c1.876-0.227,3.716-0.583,5.484-1.308
			c1.637-0.671,1.858-0.452,1.596,1.369c-0.497,3.448-1.179,6.866-2.102,10.219c-1.526,5.537-3.404,10.945-6.572,15.81
			c-6.496,9.975-15.449,13.503-27.146,11.723c-2.661-0.405-5.226-1.188-7.77-2.063c-1.466-0.504-2.042-1.423-1.966-2.951
			c0.323-6.555,3.188-11.809,8.146-15.978c2.849-2.395,5.994-4.296,9.653-5.187C1116.176,37.092,1118.662,37.394,1121.283,36.637z"
			/>
		<path d="M1094.215,32.587c0.657-3.173,2.963-5.412,4.266-8.206c-0.469-0.3-0.891-0.026-1.156,0.194
			c-2.957,2.459-5.652,5.136-7.553,8.556c-2.519,4.533-3.086,9.32-2.029,14.311c0.401,1.894,0.171,3.751,0.179,5.627
			c0.001,0.348-0.007,0.803-0.435,0.86c-0.205,0.027-0.501-0.261-0.681-0.471c-1.33-1.551-2.396-3.286-3.273-5.118
			c-3.92-8.184-3.299-15.967,2.028-23.386c3.613-5.03,8.045-9.317,12.214-13.846c2.893-3.142,5.92-6.184,7.522-10.289
			c0.422-1.081,0.932-1.092,1.698-0.047c1.329,1.811,2.605,3.665,3.825,5.552c3.319,5.134,6.206,10.484,7.936,16.389
			c0.615,2.099,0.567,2.185-1.646,2.306c-5.678,0.311-11.258,1.011-16.484,3.493C1098.329,29.604,1096.305,31.08,1094.215,32.587z"
			/>
	</g>
	<path d="M610.227,0c-0.622,3.08-0.408,5.53-0.197,7.96c0.655,7.545,2.433,14.834,6.247,21.401
		c7.184,12.367,18.517,18.868,33.368,16.499c3.948-0.63,7.924-1.227,11.981,0.553c-2.627-6.98-7.091-12.062-13.285-15.632
		c-6.271-3.614-12.945-6.431-19.39-9.704c-2.366-1.202-4.708-2.464-6.679-4.288c-0.167-0.155-0.238-0.413-0.573-1.025
		c1.306,0.735,2.24,1.27,3.183,1.79c4.196,2.312,8.69,3.836,13.215,5.387c8.002,2.743,16.033,5.639,22.122,11.936
		c2.273,2.351,3.407,2.487,5.509,5.003c0.221,0.265,0.369,0.646,0.95,0.529c-0.737-5.249-1.092-7.92-3.668-12.542
		c-8.231-14.768-20.491-22.97-37.868-22.433c-2.05,0.063-4.108,0.066-6.156-0.031C615.351,5.233,612.026,4.413,610.227,0z"/>
	<path d="M694.983,69.833c-3.181,2.577-6.992,3.987-10.621,5.731c-4.786,2.299-9.862,4.055-13.969,7.607
		c-2.695,2.331-4.758,5.077-6.176,8.864c3.197-1.045,6.051-0.79,8.859-0.206c13.043,2.708,23.819-4.588,28.592-16.606
		c2.332-5.872,3.478-12.331,3.015-17.23c-4.242,5.06-9.802,2.986-14.84,3.058c-12.436,0.177-24.134,8.477-28.198,20.445
		c-0.798,2.35-1.689,4.683-1.8,7.194c0.857,0.418,1.161-0.313,1.417-0.693c5.297-7.859,13.362-11.326,22.003-13.796
		c4.03-1.152,7.805-2.853,11.555-4.655c0.183-0.353,0.418-0.401,0.784-0.064C695.375,69.609,695.179,69.721,694.983,69.833z"/>
	<path d="M626.408,83.833c-0.191,0.121-0.381,0.242-0.603,0.382c-0.126-0.481,0.027-0.666,0.424-0.662
		C626.292,83.645,626.352,83.738,626.408,83.833z"/>
	<path d="M434.817,211.318c-5.627,0-10.721,2.271-14.423,5.944l-60.651-40.909c1.127-1.842,2.134-3.786,3.014-5.84
		c2.255-5.26,3.381-10.953,3.381-17.082c0-6.128-1.127-11.82-3.381-17.083c-1.181-2.755-2.59-5.314-4.215-7.688l58.892-46.011
		c3.584,3.08,8.236,4.953,13.332,4.953c11.313,0,20.483-9.171,20.483-20.483c0-11.313-9.171-20.483-20.483-20.483
		c-11.313,0-20.483,9.171-20.483,20.483c0,2.729,0.544,5.327,1.513,7.708l-59.575,46.544c-3.582-3.267-7.728-5.878-12.443-7.827
		c-5.32-2.195-10.986-3.295-16.996-3.295c-4.852,0-9.425,0.701-13.731,2.077l-27.104-74.467c5.799-3.617,9.67-10.035,9.67-17.373
		C291.618,9.171,282.448,0,271.135,0c-11.313,0-20.483,9.171-20.483,20.483c0,11.313,9.171,20.483,20.483,20.483
		c0.561,0,1.113-0.04,1.662-0.084l27.44,75.392c-3.026,1.786-5.774,3.908-8.237,6.371c-3.875,3.875-6.938,8.441-9.191,13.701
		c-2.255,5.263-3.383,10.956-3.383,17.083c0,6.129,1.128,11.822,3.383,17.082c2.253,5.263,5.316,9.829,9.191,13.701
		c3.083,3.086,6.615,5.63,10.58,7.651l-22.891,79.834c-0.295-0.013-0.586-0.045-0.884-0.045c-11.313,0-20.483,9.171-20.483,20.483
		c0,11.313,9.171,20.483,20.483,20.483c11.313,0,20.483-9.171,20.483-20.483c0-7.618-4.168-14.25-10.338-17.779l22.675-79.08
		c3.544,0.887,7.262,1.336,11.158,1.336c6.01,0,11.677-1.1,16.996-3.294c5.316-2.196,9.912-5.23,13.788-9.106
		c0.08-0.08,0.155-0.165,0.235-0.246l61.539,41.509c-0.647,1.994-1.007,4.117-1.007,6.326c0,11.313,9.171,20.483,20.483,20.483
		s20.483-9.171,20.483-20.483C455.301,220.489,446.13,211.318,434.817,211.318z M343.248,162.101
		c-0.345,0.813-0.739,1.588-1.157,2.344c-0.395,0.714-0.831,1.396-1.289,2.06c-0.196,0.281-0.393,0.561-0.601,0.832
		c-0.15,0.197-0.301,0.393-0.457,0.586c-0.388,0.476-0.787,0.945-1.213,1.392c-0.438,0.458-0.9,0.885-1.373,1.3
		c-0.466,0.402-0.948,0.784-1.444,1.149c-1.306,0.961-2.716,1.797-4.258,2.476c-2.729,1.203-5.619,1.804-8.671,1.804
		c-1.877,0-3.685-0.255-5.44-0.71c-0.524-0.136-1.043-0.288-1.558-0.458c-0.563-0.194-1.124-0.394-1.674-0.636
		c-0.612-0.269-1.2-0.569-1.775-0.883c-0.174-0.095-0.344-0.197-0.515-0.296c-0.411-0.239-0.811-0.489-1.202-0.751
		c-0.167-0.112-0.337-0.222-0.501-0.339c-1.109-0.789-2.141-1.67-3.083-2.657c-1.99-2.08-3.562-4.485-4.718-7.214
		c-1.157-2.728-1.734-5.619-1.734-8.671s0.577-5.966,1.734-8.741c1.155-2.775,2.728-5.179,4.718-7.215
		c0.218-0.223,0.458-0.423,0.686-0.636c0.455-0.427,0.928-0.835,1.417-1.224c0.022-0.017,0.044-0.033,0.066-0.05
		c0.463-0.365,0.942-0.713,1.436-1.043c0.143-0.095,0.294-0.181,0.44-0.272c0.394-0.25,0.789-0.497,1.203-0.725
		c0.591-0.322,1.196-0.628,1.827-0.906c0.671-0.295,1.353-0.553,2.044-0.776c0,0,0,0,0.001,0c2.117-0.683,4.326-1.027,6.627-1.027
		c3.052,0,5.942,0.603,8.671,1.804c1.332,0.588,2.573,1.278,3.729,2.064c0.603,0.41,1.182,0.846,1.738,1.308
		c0.003,0.002,0.006,0.004,0.009,0.007c0.558,0.465,1.092,0.957,1.601,1.477c0.407,0.417,0.785,0.859,1.157,1.306
		c0.167,0.204,0.335,0.408,0.495,0.619c0.132,0.171,0.253,0.35,0.38,0.525c0.424,0.593,0.83,1.204,1.204,1.842
		c0.545,0.929,1.052,1.892,1.482,2.923c1.155,2.775,1.734,5.689,1.734,8.741S344.403,159.374,343.248,162.101z"/>
</g>
</svg>
