<?xml version="1.0" encoding="UTF-8" standalone="no"?>
<!-- Generator: Adobe Illustrator 17.0.0, SVG Export Plug-In . SVG Version: 6.00 Build 0)  -->

<svg
   version="1.0"
   id="Layer_1"
   x="0px"
   y="0px"
   width="361.97171"
   height="269.47589"
   viewBox="0 0 361.97172 269.4759"
   enable-background="new 0 0 56.69 56.69"
   xml:space="preserve"
   sodipodi:docname="logo_square_edu_large.svg"
   inkscape:version="1.1 (c4e8f9ed74, 2021-05-24)"
   xmlns:inkscape="http://www.inkscape.org/namespaces/inkscape"
   xmlns:sodipodi="http://sodipodi.sourceforge.net/DTD/sodipodi-0.dtd"
   xmlns="http://www.w3.org/2000/svg"
   xmlns:svg="http://www.w3.org/2000/svg"><defs
   id="defs9" /><sodipodi:namedview
   id="namedview7"
   pagecolor="#ffffff"
   bordercolor="#666666"
   borderopacity="1.0"
   inkscape:pageshadow="2"
   inkscape:pageopacity="0.0"
   inkscape:pagecheckerboard="0"
   showgrid="true"
   inkscape:zoom="1"
   inkscape:cx="174.5"
   inkscape:cy="139"
   inkscape:window-width="1366"
   inkscape:window-height="744"
   inkscape:window-x="0"
   inkscape:window-y="0"
   inkscape:window-maximized="1"
   inkscape:current-layer="layer1"
   inkscape:lockguides="false"
   showguides="true"
   inkscape:guide-bbox="true"><inkscape:grid
     type="xygrid"
     id="grid1281"
     originx="150.2774"
     originy="111.28739" /><sodipodi:guide
     position="145.2774,158.18851"
     orientation="0.70710678,-0.70710678"
     id="guide1408"
     inkscape:locked="false" /></sodipodi:namedview>


<g
   inkscape:groupmode="layer"
   id="layer3"
   inkscape:label="Layer 3"
   transform="translate(150.2774,111.28739)" /><g
   inkscape:groupmode="layer"
   id="layer1"
   inkscape:label="Layer 1"
   transform="translate(150.2774,111.28739)" /><g
   inkscape:groupmode="layer"
   id="layer2"
   inkscape:label="Layer 2"
   transform="translate(150.2774,111.28739)"><path
     fill="#131313"
     d="m 195.44153,-48.329027 c -3.5776,1.4656 -7.3024,2.1888 -11.0976,2.6496 -5.8304,0.704 -11.6928,0.9152 -17.5616,1.0624 -11.7248,0.2944 -23.4752,0.288 -35.06559,2.5344 -14.1056,2.7328 -24.7936,10.0288 -31.5456,22.943999 -3.897601,7.456 -5.676801,15.2832001 -6.182401,23.3600006 -1.2352,-0.992 -2.5088,-1.9456 -3.8144,-2.8544003 -0.0512,-1.23520002 -0.16,-2.4768 -0.4224,-3.7248 -2.1376,-10.0992003 -0.992,-19.7888003 4.1088,-28.9599993 3.8464,-6.9248 9.299201,-12.3392 15.283201,-17.3184 0.5376,-0.448 1.3888,-0.9984 2.3424,-0.3904 -2.6368,5.6512 -7.3024,10.1824 -8.6336,16.608 4.2304,-3.0528 8.3264,-6.0352 12.9728,-8.2432 10.5728,-5.024 21.8688,-6.4384 33.35679,-7.0656 4.48,-0.2432 4.576,-0.416 3.3344,-4.6656 -3.5008,-11.9488 -9.344,-22.7776 -16.05759,-33.164797 -2.4704,-3.8208 -5.0496,-7.5712 -7.7376,-11.232 -1.5488,-2.112 -2.5856,-2.0928 -3.4368,0.096 -3.2448,8.3072 -9.3696,14.464 -15.2192,20.8192 -8.4352,9.164797 -17.408001,17.836797 -24.716799,28.019197 -9.8816,13.7536 -11.6672,28.140799 -5.8048,43.1935991 -7.1232,-3.0272 -14.9248,-4.576 -23.4176,-4.576 -10.8928,0 -20.7232,2.1248 -29.4784,6.3616002 -8.7616,4.2432 -16.1792,9.8304003 -22.2720001,16.7616007 -6.0864,6.9312 -10.790401,15.008 -14.099201,24.2112 -3.3151999,9.2096 -4.9663999,18.7776 -4.9663999,28.7168 0,10.3488 1.6,20.281603 4.8063999,29.798403 3.2,9.516804 7.8464008,17.900804 13.939201,25.145604 6.0864001,7.2448 13.5616001,12.9856 22.4256001,17.2288 8.864,4.2368 19.0656,6.3616 30.5984,6.3616 10.8928,0 20.6656,-2.5344 29.318398,-7.6032 8.6528,-5.0688 15.859201,-11.744 21.632001,-20.0192 l 0.64,2.6112 v 23.8528 h 28.8384 V 31.613373 c 18.20159,-0.032 32.67199,-7.6736 43.62879,-24.4992004 6.4128,-9.8432003 10.2144,-20.7872006 13.2992,-31.9936006 1.8688,-6.783999 3.2512,-13.702399 4.256,-20.678399 0.512,-3.6864 0.064,-4.128 -3.2512,-2.7712 z M 100.35674,87.069376 c -2.028801,5.9968 -5.024001,11.3088 -8.979201,15.923204 -3.9552,4.6208 -8.780798,8.256 -14.457598,10.912 -5.6832,2.656 -12.2816,3.9808 -19.7824,3.9808 -7.3024,0 -13.7472,-1.376 -19.328,-4.128 -5.5808,-2.752 -10.2464,-6.4896 -14.0032,-11.2064 -3.7568,-4.716804 -6.6496,-10.073604 -8.6784,-16.070404 -2.0288,-5.996803 -3.04,-12.236803 -3.04,-18.726403 0,-6.4896 1.0112,-12.6784 3.04,-18.5792 2.0288,-5.9008 4.9728,-11.1552 8.8256,-15.776 3.8528,-4.6208 8.5696,-8.3008 14.1504,-11.0592 5.5808,-2.752 11.9168,-4.128 19.0208,-4.128 7.3024,0 13.8496,1.3248 19.6352,3.9808 5.7856,2.656 10.655998,6.2464 14.611198,10.7648 3.9552,4.5248 6.9504,9.7856 8.979201,15.776 2.0288,5.9968 3.0464,12.3392 3.0464,19.0208 0.006,6.88 -1.0112,13.3184 -3.04,19.315203 z m 42.14399,-109.209604 c -7.40479,1.8048 -13.76639,5.6512 -19.53279,10.496 -9.2608,7.7888001 -14.8608,17.4720006 -16.1856,29.350401 -2.8672,-3.9424 -6.016,-7.5264 -9.484801,-10.7008004 1.6896,-4.3008 3.545601,-8.5184003 5.907201,-12.5312005 12.4864,-21.2544001 36.8192,-24.2176001 54.42559,-18.6944001 -5.312,1.5232 -10.3424,0.9152 -15.1296,2.08 z"
     id="path2"
     style="stroke-width:6.4" /><path
     fill="#121212"
     d="M -6.0944601,122.81978 C -12.18086,115.57498 -16.82726,107.19738 -20.03366,97.674176 c -3.2064,-9.5168 -4.8064,-19.449603 -4.8064,-29.798403 0,-9.9328 1.6512,-19.5008 4.9664,-28.7168 3.3088,-9.2032 8.0128,-17.28 14.0991999,-24.2112 0.3648,-0.416 0.7808,-0.7808 1.152,-1.184 -1.3696,-3.168 -2.8928,-6.2016004 -4.7936,-8.9344004 C -13.53766,-1.0906277 -19.09286,-5.8010279 -26.06886,-9.2890279 c -6.976,-3.4880001 -15.654399,-5.2352001 -26.009599,-5.2352001 -8.0384,0 -15.6544,1.4848 -22.841602,4.4416 -7.1936,2.9632001 -13.1136,7.9296003 -17.7664,14.9120006 h -0.6336 V -9.4490279 H -137.73606 V 146.31418 h 44.415999 V 73.635773 c 0,-4.6464 0.16,-9.7792 0.4736,-15.3856 0.3136,-5.6 1.3184,-10.8352 3.0144,-15.7056 1.6896,-4.864 4.3328,-8.9344 7.9296,-12.2176 3.5904,-3.2768 8.672002,-4.9152 15.225602,-4.9152 6.3424,0 11.1552,1.376 14.432,4.1216 3.2768,2.752 5.6,6.1824 6.976,10.3104 1.3696,4.1216 2.1696,8.7232 2.3808,13.7984 0.2112,5.0752 0.32,9.9456 0.32,14.592 V 146.30778 H 1.8415409 v -15.68 c -2.8352,-2.3872 -5.523201,-4.9472 -7.936001,-7.808 z"
     id="path4"
     style="stroke-width:6.4" /></g></svg>
