<?xml version="1.0" encoding="UTF-8" standalone="no"?>
<!-- Generator: Adobe Illustrator 17.0.0, SVG Export Plug-In . SVG Version: 6.00 Build 0)  -->

<svg
   version="1.0"
   id="Layer_1"
   x="0px"
   y="0px"
   width="60"
   height="60"
   viewBox="0 0 60.000001 60.000001"
   enable-background="new 0 0 56.69 56.69"
   xml:space="preserve"
   sodipodi:docname="logo_square.svg"
   inkscape:version="1.1 (c4e8f9ed74, 2021-05-24)"
   xmlns:inkscape="http://www.inkscape.org/namespaces/inkscape"
   xmlns:sodipodi="http://sodipodi.sourceforge.net/DTD/sodipodi-0.dtd"
   xmlns="http://www.w3.org/2000/svg"
   xmlns:svg="http://www.w3.org/2000/svg"><defs
   id="defs9" /><sodipodi:namedview
   id="namedview7"
   pagecolor="#ffffff"
   bordercolor="#666666"
   borderopacity="1.0"
   inkscape:pageshadow="2"
   inkscape:pageopacity="0.0"
   inkscape:pagecheckerboard="0"
   showgrid="true"
   inkscape:zoom="7.0847885"
   inkscape:cx="24.206792"
   inkscape:cy="28.370642"
   inkscape:window-width="1366"
   inkscape:window-height="744"
   inkscape:window-x="0"
   inkscape:window-y="0"
   inkscape:window-maximized="1"
   inkscape:current-layer="layer3"
   inkscape:lockguides="false"
   showguides="true"
   inkscape:guide-bbox="true"><inkscape:grid
     type="xygrid"
     id="grid1281"
     originx="1.0281982e-07"
     originy="1.4956665e-08" /><sodipodi:guide
     position="-4.9999998,60.000001"
     orientation="0.70710678,-0.70710678"
     id="guide1408" /></sodipodi:namedview>


<g
   inkscape:groupmode="layer"
   id="layer3"
   inkscape:label="Layer 3" /><g
   inkscape:groupmode="layer"
   id="layer1"
   inkscape:label="Layer 1"><path
     id="path2-6"
     d="m 45.173343,2.4937345 c -1.131058,0.1823927 -1.468666,1.3952935 -1.976174,2.2464882 -2.156144,2.8689852 -5.248671,5.069101 -6.721091,8.4292933 -0.43936,1.010931 -0.624468,2.172638 -0.683594,3.222656 -3.917515,-0.389011 -7.953596,1.164697 -10.573745,4.106699 -4.761001,5.269629 -4.7393,13.96458 -0.335096,19.438482 2.463668,3.101225 6.479234,4.759936 10.408259,4.54791 1.97836,-0.05733 3.943192,-0.650925 5.598238,-1.741529 0.148875,0.475214 -0.329015,1.577193 0.3,1.572266 2.735287,0 5.470573,0 8.20586,0 0,-5.924479 0,-11.848958 0,-17.773438 3.266175,-0.539422 5.872558,-3.021063 7.28125,-5.921875 1.242148,-2.605041 2.024548,-5.445017 2.308894,-8.314755 0.02641,-0.677673 -0.337809,-1.3169 -0.781748,-1.779137 -0.680047,-0.385643 -1.455944,-0.5538862 -2.204881,-0.259623 -1.390557,0.579831 -2.932689,0.476362 -4.40625,0.556641 C 50.702809,7.9995494 49.124585,5.4270484 47.315922,3.1050627 46.789043,2.5608453 45.902363,2.2214494 45.173343,2.4937345 Z M 35.192875,24.642172 c 2.208244,0.01892 4.184603,1.711939 4.636775,3.857493 0.650956,2.522001 0.02065,5.715125 -2.393902,7.087933 -2.050384,1.108953 -5.022009,0.792698 -6.399123,-1.232536 -1.868278,-2.598974 -1.677159,-6.74097 0.918414,-8.79367 0.915781,-0.725113 2.086626,-0.993574 3.237836,-0.91922 z"
     style="fill:#ffffff" /><path
     id="path4-7"
     style="fill:#ffffff"
     d="m 17.304416,15.166105 c -1.350069,0.05981 -2.692711,0.351454 -3.935547,0.884765 -0.352534,-0.247987 -1.175096,-0.02595 -1.7,-0.101562 -3.079818,0 -6.159636,0 -9.2394535,0 0,9.445964 0,18.891927 0,28.337891 3.6464845,0 7.2929685,0 10.9394535,0 0.03006,-5.056397 -0.06189,-10.115015 0.04926,-15.169986 0.08346,-1.246445 0.149697,-2.809532 1.273008,-3.58978 0.787346,-0.247844 2.020369,-0.271984 2.274199,0.722962 0.530791,1.933739 0.257929,3.975292 0.333223,5.957116 0,4.025912 0,8.051823 0,12.077734 3.646484,10e-7 7.292969,0 10.939453,0 0,-1.787109 0,-3.574218 0,-5.361328 -1.695559,-1.276673 -2.998941,-3.05656 -3.59467,-5.103049 -1.265716,-3.918419 -0.478057,-8.659384 2.64837,-11.50064 0.653754,-0.395172 -0.135762,-1.041107 -0.2412,-1.568186 -1.224397,-3.134481 -4.378199,-5.254622 -7.692156,-5.513781 -0.681191,-0.07863 -1.368938,-0.09242 -2.05394,-0.07216 z" /></g><g
   inkscape:groupmode="layer"
   id="layer2"
   inkscape:label="Layer 2"><path
     fill="#131313"
     d="m 56.448,12.235 c -0.559,0.229 -1.141,0.342 -1.734,0.414 -0.911,0.11 -1.827,0.143 -2.744,0.166 -1.832,0.046 -3.668,0.045 -5.479,0.396 -2.204,0.427 -3.874,1.567 -4.929,3.585 -0.609,1.165 -0.887,2.388 -0.966,3.65 C 40.403,20.291 40.204,20.142 40,20 39.992,19.807 39.975,19.613 39.934,19.418 39.6,17.84 39.779,16.326 40.576,14.893 c 0.601,-1.082 1.453,-1.928 2.388,-2.706 0.084,-0.07 0.217,-0.156 0.366,-0.061 -0.412,0.883 -1.141,1.591 -1.349,2.595 0.661,-0.477 1.301,-0.943 2.027,-1.288 1.652,-0.785 3.417,-1.006 5.212,-1.104 0.7,-0.038 0.715,-0.065 0.521,-0.729 C 49.194,9.733 48.281,8.041 47.232,6.418 46.846,5.821 46.443,5.235 46.023,4.663 45.781,4.333 45.619,4.336 45.486,4.678 c -0.507,1.298 -1.464,2.26 -2.378,3.253 -1.318,1.432 -2.72,2.787 -3.862,4.378 -1.544,2.149 -1.823,4.397 -0.907,6.749 -1.113,-0.473 -2.332,-0.715 -3.659,-0.715 -1.702,0 -3.238,0.332 -4.606,0.994 -1.369,0.663 -2.528,1.536 -3.48,2.619 -0.951,1.083 -1.686,2.345 -2.203,3.783 -0.518,1.439 -0.776,2.934 -0.776,4.487 0,1.617 0.25,3.169 0.751,4.656 0.5,1.487 1.226,2.797 2.178,3.929 0.951,1.132 2.119,2.029 3.504,2.692 1.385,0.662 2.979,0.994 4.781,0.994 1.702,0 3.229,-0.396 4.581,-1.188 1.352,-0.792 2.478,-1.835 3.38,-3.128 l 0.1,0.408 v 3.727 h 4.506 v -17.59 c 2.844,-0.005 5.105,-1.199 6.817,-3.828 1.002,-1.538 1.596,-3.248 2.078,-4.999 0.292,-1.06 0.508,-2.141 0.665,-3.231 0.08,-0.576 0.01,-0.645 -0.508,-0.433 z M 41.591,33.391 c -0.317,0.937 -0.785,1.767 -1.403,2.488 -0.618,0.722 -1.372,1.29 -2.259,1.705 -0.888,0.415 -1.919,0.622 -3.091,0.622 -1.141,0 -2.148,-0.215 -3.02,-0.645 -0.872,-0.43 -1.601,-1.014 -2.188,-1.751 -0.587,-0.737 -1.039,-1.574 -1.356,-2.511 -0.317,-0.937 -0.475,-1.912 -0.475,-2.926 0,-1.014 0.158,-1.981 0.475,-2.903 0.317,-0.922 0.777,-1.743 1.379,-2.465 0.602,-0.722 1.339,-1.297 2.211,-1.728 0.872,-0.43 1.862,-0.645 2.972,-0.645 1.141,0 2.164,0.207 3.068,0.622 0.904,0.415 1.665,0.976 2.283,1.682 0.618,0.707 1.086,1.529 1.403,2.465 0.317,0.937 0.476,1.928 0.476,2.972 10e-4,1.075 -0.158,2.081 -0.475,3.018 z m 6.585,-17.064 c -1.157,0.282 -2.151,0.883 -3.052,1.64 -1.447,1.217 -2.322,2.73 -2.529,4.586 -0.448,-0.616 -0.94,-1.176 -1.482,-1.672 0.264,-0.672 0.554,-1.331 0.923,-1.958 1.951,-3.321 5.753,-3.784 8.504,-2.921 -0.83,0.238 -1.616,0.143 -2.364,0.325 z"
     id="path2" /><path
     fill="#121212"
     d="m 24.958,38.977 c -0.951,-1.132 -1.677,-2.441 -2.178,-3.929 -0.501,-1.487 -0.751,-3.039 -0.751,-4.656 0,-1.552 0.258,-3.047 0.776,-4.487 0.517,-1.438 1.252,-2.7 2.203,-3.783 0.057,-0.065 0.122,-0.122 0.18,-0.185 -0.214,-0.495 -0.452,-0.969 -0.749,-1.396 -0.644,-0.925 -1.512,-1.661 -2.602,-2.206 -1.09,-0.545 -2.446,-0.818 -4.064,-0.818 -1.256,0 -2.446,0.232 -3.569,0.694 -1.124,0.463 -2.049,1.239 -2.776,2.33 H 11.329 V 18.31 h -6.94 v 24.338 h 6.94 V 31.292 c 0,-0.726 0.025,-1.528 0.074,-2.404 0.049,-0.875 0.206,-1.693 0.471,-2.454 0.264,-0.76 0.677,-1.396 1.239,-1.909 0.561,-0.512 1.355,-0.768 2.379,-0.768 0.991,0 1.743,0.215 2.255,0.644 0.512,0.43 0.875,0.966 1.09,1.611 0.214,0.644 0.339,1.363 0.372,2.156 0.033,0.793 0.05,1.554 0.05,2.28 v 12.199 h 6.939 v -2.45 c -0.443,-0.373 -0.863,-0.773 -1.24,-1.22 z"
     id="path4" /></g></svg>
