<?xml version="1.0" encoding="utf-8"?>
<!-- Generator: Adobe Illustrator 17.0.0, SVG Export Plug-In . SVG Version: 6.00 Build 0)  -->
<!DOCTYPE svg PUBLIC "-//W3C//DTD SVG 1.1//EN" "http://www.w3.org/Graphics/SVG/1.1/DTD/svg11.dtd">
<svg version="1.1" id="Layer_1" xmlns="http://www.w3.org/2000/svg" xmlns:xlink="http://www.w3.org/1999/xlink" x="0px" y="0px"
	 width="128px" height="48px" viewBox="0 0 128 48" enable-background="new 0 0 128 48" xml:space="preserve">
<g>
	<path d="M118.675,29.391h-1.744v-1.443l-0.039-0.158c-0.349,0.501-0.785,0.905-1.308,1.211c-0.523,0.307-1.114,0.46-1.773,0.46
		c-0.698,0-1.315-0.128-1.851-0.385c-0.536-0.256-0.988-0.604-1.357-1.042c-0.368-0.438-0.649-0.945-0.843-1.521
		c-0.194-0.576-0.291-1.177-0.291-1.803c0-0.601,0.1-1.18,0.3-1.737c0.2-0.557,0.485-1.045,0.853-1.465
		c0.368-0.419,0.817-0.757,1.347-1.014c0.53-0.256,1.124-0.385,1.783-0.385c0.672,0,1.272,0.157,1.802,0.47
		c0.53,0.313,0.975,0.732,1.337,1.258l0.039-0.155v-1.542h1.744V29.391z M113.814,27.8c0.454,0,0.853-0.08,1.197-0.241
		c0.344-0.161,0.635-0.38,0.875-0.66c0.239-0.279,0.42-0.6,0.543-0.963c0.123-0.363,0.184-0.752,0.184-1.168
		c0-0.404-0.062-0.788-0.184-1.151c-0.123-0.363-0.304-0.681-0.543-0.954c-0.239-0.273-0.534-0.491-0.884-0.651
		c-0.35-0.161-0.746-0.241-1.188-0.241c-0.43,0-0.813,0.083-1.151,0.25c-0.338,0.167-0.623,0.39-0.856,0.669
		c-0.233,0.28-0.411,0.597-0.534,0.954c-0.123,0.357-0.184,0.731-0.184,1.124s0.061,0.77,0.184,1.133
		c0.123,0.363,0.298,0.687,0.525,0.972c0.227,0.285,0.509,0.511,0.847,0.678C112.982,27.717,113.372,27.8,113.814,27.8z"/>
	<path d="M3.441,20.962H3.48c0.281-0.422,0.64-0.723,1.075-0.902c0.435-0.179,0.895-0.269,1.382-0.269
		c0.627,0,1.151,0.106,1.574,0.317c0.422,0.211,0.758,0.496,1.008,0.854c0.249,0.358,0.425,0.777,0.528,1.257
		c0.102,0.48,0.153,0.995,0.153,1.545v5.757H6.512v-4.723c0-0.281-0.007-0.576-0.019-0.883c-0.013-0.307-0.061-0.585-0.144-0.835
		c-0.083-0.249-0.224-0.457-0.422-0.624c-0.198-0.166-0.489-0.249-0.873-0.249c-0.397,0-0.704,0.099-0.921,0.297
		c-0.218,0.199-0.378,0.445-0.48,0.739c-0.103,0.294-0.163,0.611-0.182,0.95c-0.019,0.339-0.029,0.649-0.029,0.931v4.397H0.755
		v-9.422h2.687V20.962z"/>
	<g>
		<path d="M31.609,40.667c-0.049,0-0.098-0.007-0.147-0.021c-0.283-0.081-0.447-0.376-0.365-0.659l4.329-15.098
			c0.081-0.283,0.376-0.447,0.659-0.365c0.283,0.081,0.447,0.376,0.365,0.659l-4.329,15.098
			C32.054,40.515,31.841,40.667,31.609,40.667z"/>
	</g>
	<path d="M56.856,29.391h-1.744v-1.443l-0.039-0.158c-0.349,0.501-0.785,0.905-1.308,1.211c-0.523,0.307-1.114,0.46-1.773,0.46
		c-0.698,0-1.315-0.128-1.851-0.385c-0.536-0.256-0.988-0.604-1.357-1.042c-0.368-0.438-0.649-0.945-0.843-1.521
		c-0.194-0.576-0.291-1.177-0.291-1.803c0-0.601,0.1-1.18,0.3-1.737c0.2-0.557,0.485-1.045,0.853-1.465
		c0.368-0.419,0.817-0.757,1.347-1.014c0.53-0.256,1.124-0.385,1.783-0.385c0.672,0,1.272,0.157,1.802,0.47
		c0.53,0.313,0.975,0.732,1.337,1.258l0.039-0.155v-1.542h1.744V29.391z M51.995,27.8c0.454,0,0.853-0.08,1.197-0.241
		c0.344-0.161,0.635-0.38,0.875-0.66c0.239-0.279,0.42-0.6,0.543-0.963c0.123-0.363,0.184-0.752,0.184-1.168
		c0-0.404-0.062-0.788-0.184-1.151c-0.123-0.363-0.304-0.681-0.543-0.954c-0.239-0.273-0.534-0.491-0.884-0.651
		c-0.35-0.161-0.746-0.241-1.188-0.241c-0.43,0-0.813,0.083-1.151,0.25c-0.338,0.167-0.623,0.39-0.856,0.669
		c-0.233,0.28-0.411,0.597-0.534,0.954c-0.123,0.357-0.184,0.731-0.184,1.124s0.061,0.77,0.184,1.133
		c0.123,0.363,0.298,0.687,0.525,0.972c0.227,0.285,0.509,0.511,0.847,0.678C51.164,27.717,51.553,27.8,51.995,27.8z"/>
	<path d="M72.777,12.234h1.744v9.448l0.039,0.155c0.362-0.526,0.807-0.945,1.337-1.258c0.53-0.313,1.137-0.47,1.822-0.47
		c0.659,0,1.25,0.128,1.774,0.385c0.523,0.257,0.969,0.595,1.337,1.014c0.368,0.419,0.652,0.908,0.853,1.465
		c0.2,0.557,0.3,1.136,0.3,1.737c0,0.626-0.097,1.227-0.291,1.803c-0.194,0.576-0.475,1.083-0.843,1.521
		c-0.368,0.438-0.821,0.786-1.357,1.042c-0.536,0.256-1.153,0.385-1.851,0.385c-0.646,0-1.234-0.153-1.764-0.46
		c-0.53-0.307-0.969-0.71-1.318-1.211l-0.039,0.158v1.443h-1.744V12.234z M77.564,27.8c0.454,0,0.853-0.08,1.197-0.241
		c0.344-0.161,0.635-0.38,0.875-0.66c0.239-0.279,0.42-0.6,0.543-0.963c0.123-0.363,0.184-0.752,0.184-1.168
		c0-0.404-0.062-0.788-0.184-1.151c-0.123-0.363-0.304-0.681-0.543-0.954c-0.239-0.273-0.534-0.491-0.884-0.651
		c-0.35-0.161-0.746-0.241-1.188-0.241c-0.43,0-0.813,0.083-1.151,0.25c-0.338,0.167-0.623,0.39-0.856,0.669
		c-0.233,0.28-0.411,0.597-0.534,0.954c-0.123,0.357-0.184,0.731-0.184,1.124s0.061,0.77,0.184,1.133
		c0.123,0.363,0.298,0.687,0.525,0.972c0.227,0.285,0.509,0.511,0.847,0.678C76.732,27.717,77.122,27.8,77.564,27.8z"/>
	<path d="M84.141,15.787c0.336,0,0.62,0.122,0.853,0.366c0.233,0.244,0.349,0.537,0.349,0.88c0,0.343-0.116,0.629-0.349,0.86
		c-0.233,0.231-0.517,0.346-0.853,0.346c-0.336,0-0.62-0.115-0.853-0.346c-0.233-0.23-0.349-0.517-0.349-0.86
		c0-0.342,0.116-0.636,0.349-0.88C83.521,15.909,83.805,15.787,84.141,15.787z M85.013,29.391h-1.744v-9.25h1.744V29.391z"/>
	<path d="M87.774,25.048c0,0.376,0.065,0.739,0.194,1.089c0.129,0.351,0.313,0.66,0.552,0.929c0.239,0.269,0.526,0.485,0.863,0.648
		c0.336,0.163,0.71,0.244,1.124,0.244c0.672,0,1.208-0.153,1.609-0.46c0.4-0.307,0.769-0.723,1.105-1.249l1.473,0.807
		c-0.426,0.764-1.011,1.355-1.754,1.774c-0.743,0.419-1.56,0.629-2.452,0.629c-0.698,0-1.321-0.119-1.87-0.357
		c-0.549-0.238-1.014-0.563-1.396-0.976c-0.381-0.413-0.675-0.901-0.882-1.465c-0.207-0.563-0.31-1.17-0.31-1.821
		c0-0.676,0.094-1.302,0.281-1.878c0.187-0.576,0.465-1.077,0.833-1.502c0.368-0.425,0.827-0.757,1.376-0.995
		c0.549-0.238,1.192-0.357,1.928-0.357c0.723,0,1.35,0.122,1.88,0.366c0.53,0.244,0.969,0.576,1.318,0.995
		c0.349,0.419,0.61,0.914,0.785,1.483c0.175,0.57,0.262,1.18,0.262,1.831v0.263H87.774z M92.949,23.772
		c-0.104-0.663-0.372-1.195-0.804-1.596c-0.433-0.4-0.998-0.601-1.696-0.601c-0.685,0-1.26,0.207-1.725,0.62
		c-0.465,0.413-0.749,0.939-0.853,1.577H92.949z"/>
	<path d="M97.93,21.386h0.039c0.271-0.501,0.608-0.85,1.118-1.081c0.522-0.236,1.093-0.195,1.649-0.195
		c0.633,0,1.126,0.131,1.546,0.335c0.42,0.204,0.749,0.488,0.988,0.85c0.239,0.363,0.407,0.788,0.504,1.275
		c0.097,0.488,0.145,1.015,0.145,1.581v5.24h-1.744v-5.023c0-0.395-0.019-0.754-0.058-1.077c-0.039-0.323-0.129-0.603-0.271-0.84
		c-0.142-0.237-0.346-0.418-0.611-0.544c-0.265-0.125-0.617-0.188-1.056-0.188c-0.569,0-1.005,0.115-1.308,0.346
		c-0.304,0.231-0.523,0.524-0.659,0.88c-0.136,0.356-0.217,0.751-0.242,1.186c-0.026,0.435-0.039,0.863-0.039,1.285v3.975h-1.744
		v-9.25h1.744V21.386z"/>
	<path d="M107.511,29.391h-1.744v-7.59h-0.95v-1.66h0.95v-3.538h1.744v3.538h1.706v1.66h-1.706V29.391z"/>
	<path d="M122.226,29.391h-1.744V12.234h1.744V29.391z"/>
	<path d="M15.176,20.004c0.665,0,1.292,0.122,1.881,0.365c0.588,0.243,1.097,0.579,1.526,1.007c0.428,0.429,0.768,0.934,1.017,1.516
		c0.249,0.582,0.374,1.212,0.374,1.89c0,0.678-0.125,1.308-0.374,1.89c-0.249,0.582-0.589,1.088-1.017,1.516
		c-0.429,0.429-0.937,0.765-1.526,1.008c-0.589,0.243-1.216,0.365-1.881,0.365c-0.678,0-1.308-0.122-1.89-0.365
		c-0.582-0.243-1.088-0.579-1.516-1.008c-0.429-0.428-0.768-0.934-1.017-1.516c-0.249-0.582-0.374-1.212-0.374-1.89
		c0-0.678,0.125-1.308,0.374-1.89c0.249-0.582,0.588-1.087,1.017-1.516c0.428-0.428,0.934-0.764,1.516-1.007
		C13.868,20.126,14.497,20.004,15.176,20.004z M15.176,22.28c-0.338,0-0.658,0.067-0.959,0.2c-0.302,0.133-0.563,0.312-0.783,0.537
		c-0.22,0.225-0.394,0.491-0.522,0.798c-0.128,0.307-0.192,0.629-0.192,0.967c0,0.338,0.064,0.658,0.192,0.959
		c0.128,0.302,0.302,0.568,0.522,0.798c0.22,0.23,0.481,0.412,0.783,0.545c0.302,0.133,0.622,0.2,0.959,0.2
		c0.338,0,0.657-0.066,0.959-0.2c0.302-0.133,0.563-0.315,0.783-0.545c0.22-0.23,0.394-0.496,0.522-0.798
		c0.128-0.302,0.192-0.622,0.192-0.959c0-0.338-0.064-0.66-0.192-0.967c-0.128-0.307-0.302-0.573-0.522-0.798
		c-0.22-0.225-0.481-0.404-0.783-0.537C15.833,22.347,15.513,22.28,15.176,22.28z"/>
	<g>
		<path d="M36.017,25.256c-0.218,0-0.422-0.134-0.501-0.351l-5.372-14.759c-0.101-0.277,0.042-0.582,0.319-0.683
			c0.276-0.101,0.582,0.042,0.683,0.319l5.372,14.759c0.101,0.277-0.042,0.582-0.319,0.683
			C36.139,25.246,36.078,25.256,36.017,25.256z"/>
	</g>
	<g>
		<path d="M48.867,34.101c-0.103,0-0.206-0.03-0.298-0.091l-13.021-8.783c-0.244-0.165-0.308-0.496-0.144-0.74
			c0.165-0.244,0.496-0.308,0.74-0.144l13.021,8.783c0.244,0.165,0.308,0.496,0.144,0.74C49.207,34.019,49.039,34.101,48.867,34.101
			z"/>
	</g>
	<g>
		<path d="M36.043,25.327c-0.158,0-0.315-0.07-0.42-0.205c-0.181-0.232-0.14-0.567,0.092-0.748l12.377-9.67
			c0.232-0.181,0.567-0.14,0.748,0.092c0.181,0.232,0.14,0.567-0.092,0.748l-12.377,9.67C36.274,25.29,36.158,25.327,36.043,25.327z
			"/>
	</g>
	<circle cx="30.645" cy="9.964" r="2.267"/>
	<circle cx="48.42" cy="15.124" r="2.267"/>
	<circle cx="48.868" cy="33.568" r="2.267"/>
	<circle cx="31.3" cy="40.134" r="2.267"/>
	<path d="M27.764,28.637h-0.038c-0.281,0.384-0.389,0.453-0.896,0.647c-0.507,0.194-1.027,0.292-1.562,0.292
		c-0.76,0-1.435-0.137-2.026-0.41c-0.591-0.273-1.091-0.635-1.499-1.085c-0.408-0.45-0.718-0.963-0.929-1.54
		c-0.211-0.577-0.317-1.17-0.317-1.777c0-0.595,0.106-1.176,0.317-1.741c0.211-0.565,0.52-1.069,0.929-1.513
		c0.408-0.443,0.904-0.799,1.488-1.066c0.584-0.267,1.249-0.401,1.995-0.401c0.535,0,1.059,0.097,1.573,0.292
		c0.514,0.195,0.634,0.257,0.928,0.628h0.038v-7.714h2.687V29.52h-2.687V28.637z M25.41,27.316c0.38,0,0.721-0.076,1.024-0.228
		c0.302-0.152,0.559-0.346,0.77-0.583c0.211-0.237,0.373-0.504,0.486-0.802c0.112-0.298,0.169-0.599,0.169-0.902
		c0-0.304-0.056-0.604-0.169-0.902c-0.113-0.298-0.274-0.565-0.486-0.802c-0.211-0.237-0.468-0.429-0.77-0.574
		c-0.303-0.146-0.644-0.219-1.024-0.219c-0.38,0-0.721,0.073-1.024,0.219c-0.303,0.146-0.559,0.337-0.77,0.574
		c-0.211,0.237-0.373,0.504-0.486,0.802c-0.113,0.298-0.169,0.599-0.169,0.902c0,0.304,0.056,0.605,0.169,0.902
		c0.113,0.298,0.274,0.565,0.486,0.802c0.211,0.237,0.468,0.432,0.77,0.583C24.689,27.24,25.03,27.316,25.41,27.316z"/>
	<path d="M71.204,22.547c-0.092-0.487-0.252-0.912-0.479-1.275c-0.227-0.362-0.54-0.645-0.939-0.85
		c-0.399-0.204-0.868-0.335-1.469-0.335c-0.528,0-1.016-0.058-1.586,0.131c-0.245,0.081-0.411,0.185-0.623,0.315
		c-0.227,0.138-0.515,0.387-0.71,0.614c-0.164,0.191-0.404,0.587-0.404,0.587c-0.016-0.029-0.126-0.313-0.276-0.575
		c-0.085-0.149-0.201-0.291-0.312-0.425c-0.161-0.196-0.299-0.298-0.393-0.358c-0.103-0.066-0.195-0.129-0.499-0.202
		c-0.274-0.066-0.568-0.107-1.119-0.107c-0.528,0-0.835-0.019-1.331,0.217c-0.484,0.231-0.804,0.58-1.062,1.081h-0.037v-1.245H58.31
		v9.25h1.657v-3.842c0-0.422,0.012-0.85,0.037-1.285c0.024-0.435,0.046-0.809,0.175-1.165c0.129-0.356,0.337-0.649,0.626-0.88
		c0.288-0.23,0.758-0.367,1.298-0.367c0.417,0,0.752,0.063,1.003,0.188c0.251,0.125,0.445,0.306,0.58,0.544
		c0.135,0.237,0.221,0.517,0.258,0.84c0.032,0.282,0.048,0.597,0.052,0.934v5.033l0.003,0.133h1.654l0.004-0.133v-4.087
		c0.004-0.343,0.013-0.688,0.033-1.039c0.024-0.435,0.042-0.813,0.171-1.169c0.129-0.356,0.337-0.649,0.626-0.88
		c0.288-0.23,0.762-0.362,1.302-0.362c0.417,0,0.752,0.063,1.003,0.188c0.251,0.125,0.445,0.306,0.58,0.544
		c0.135,0.237,0.221,0.517,0.258,0.84c0.037,0.323,0.055,0.682,0.055,1.077v4.89h1.657v-5.24
		C71.343,23.562,71.296,23.035,71.204,22.547z"/>
	<g>
		<path d="M124.832,10.576c-1.065-0.334-2.537-0.155-3.292,1.131c-0.212,0.361-0.371,0.744-0.502,1.142
			c-0.036-0.018-0.062-0.025-0.062-0.032c-0.025-0.674,0.062-1.324,0.381-1.934c0.409-0.781,1.055-1.223,1.908-1.388
			c0.701-0.136,1.412-0.135,2.121-0.153c0.355-0.009,0.71-0.022,1.062-0.064c0.23-0.028,0.455-0.071,0.671-0.16
			c0.2-0.082,0.227-0.055,0.195,0.168c-0.061,0.422-0.144,0.84-0.257,1.251c-0.187,0.678-0.417,1.34-0.805,1.935
			c-0.795,1.221-1.891,1.653-3.323,1.435c-0.326-0.05-0.64-0.145-0.951-0.253c-0.179-0.062-0.25-0.174-0.241-0.361
			c0.04-0.802,0.39-1.446,0.997-1.956c0.349-0.293,0.734-0.526,1.182-0.635C124.207,10.632,124.512,10.669,124.832,10.576z"/>
		<path d="M121.519,10.081c0.08-0.388,0.363-0.662,0.522-1.004c-0.057-0.037-0.109-0.003-0.142,0.024
			c-0.362,0.301-0.692,0.629-0.925,1.047c-0.308,0.555-0.378,1.141-0.248,1.752c0.049,0.232,0.021,0.459,0.022,0.689
			c0,0.043-0.001,0.098-0.053,0.105c-0.025,0.003-0.061-0.032-0.083-0.058c-0.163-0.19-0.293-0.402-0.401-0.626
			c-0.48-1.002-0.404-1.955,0.248-2.863c0.442-0.616,0.985-1.14,1.495-1.695c0.354-0.385,0.725-0.757,0.921-1.26
			c0.052-0.132,0.114-0.134,0.208-0.006c0.163,0.222,0.319,0.449,0.468,0.68c0.406,0.628,0.76,1.283,0.971,2.006
			c0.075,0.257,0.069,0.267-0.202,0.282c-0.695,0.038-1.378,0.124-2.018,0.428C122.023,9.715,121.775,9.896,121.519,10.081z"/>
	</g>
	<path d="M69.446,7.049c-0.149,0.314-0.192,0.583-0.234,0.849c-0.132,0.828-0.136,1.658,0.098,2.465
		c0.44,1.52,1.483,2.521,3.141,2.665c0.441,0.038,0.884,0.08,1.272,0.38c-0.095-0.82-0.438-1.485-1.008-2.034
		c-0.577-0.556-1.218-1.037-1.822-1.561c-0.222-0.192-0.44-0.391-0.602-0.639c-0.014-0.021-0.014-0.051-0.034-0.125
		c0.121,0.114,0.206,0.196,0.294,0.277c0.389,0.361,0.83,0.645,1.275,0.932c0.786,0.509,1.57,1.035,2.056,1.874
		c0.181,0.313,0.32,0.651,0.478,0.977c0.017,0.034,0.022,0.079,0.088,0.082c0.061-0.583,0.074-1.172-0.079-1.737
		c-0.488-1.806-1.585-3.015-3.465-3.422c-0.222-0.048-0.443-0.103-0.66-0.168C69.856,7.748,69.521,7.571,69.446,7.049z"/>
	<path d="M77.655,15.535c-0.352,0.285-0.774,0.441-1.175,0.634c-0.53,0.254-1.091,0.449-1.546,0.842
		c-0.298,0.258-0.526,0.562-0.683,0.981c0.354-0.116,0.67-0.087,0.98-0.023c1.443,0.3,2.636-0.508,3.164-1.837
		c0.258-0.65,0.385-1.364,0.334-1.907c-0.469,0.56-1.085,0.33-1.642,0.338c-1.376,0.02-2.67,0.938-3.12,2.262
		c-0.088,0.26-0.187,0.518-0.199,0.796c0.095,0.046,0.128-0.035,0.157-0.077c0.586-0.87,1.478-1.253,2.435-1.527
		c0.446-0.127,0.864-0.316,1.279-0.515c0.02-0.039,0.046-0.044,0.087-0.007C77.699,15.511,77.677,15.523,77.655,15.535z"/>
	<path d="M70.068,17.085c-0.021,0.013-0.042,0.027-0.067,0.042c-0.014-0.053,0.003-0.074,0.047-0.073
		C70.055,17.064,70.061,17.074,70.068,17.085z"/>
	<g>
		<path d="M37.057,22.42c0.072,0.032,0.134,0.075,0.201,0.112l1.912-1.487c-0.356-0.293-0.743-0.55-1.192-0.735
			c-0.589-0.243-1.216-0.365-1.881-0.365c-0.25,0-0.491,0.022-0.728,0.055l0.819,2.23C36.492,22.241,36.783,22.3,37.057,22.42z"/>
		<path d="M38.554,24.723c0,0.196-0.028,0.384-0.071,0.568l2.009,1.377c0.009-0.019,0.021-0.035,0.029-0.054
			c0.249-0.582,0.374-1.212,0.374-1.89c0-0.678-0.125-1.308-0.374-1.89c-0.031-0.073-0.077-0.134-0.111-0.205l-1.934,1.504
			C38.523,24.324,38.554,24.52,38.554,24.723z"/>
		<path d="M34.356,26.481c-0.22-0.23-0.394-0.496-0.522-0.798c-0.128-0.302-0.192-0.622-0.192-0.959c0-0.338,0.064-0.66,0.192-0.967
			c0.122-0.292,0.288-0.545,0.493-0.763l-0.844-2.298c-0.286,0.181-0.553,0.383-0.791,0.622c-0.429,0.429-0.768,0.934-1.017,1.516
			c-0.25,0.582-0.374,1.212-0.374,1.89c0,0.678,0.125,1.308,0.374,1.89c0.249,0.582,0.588,1.088,1.017,1.516
			c0.312,0.313,0.68,0.559,1.074,0.772l0.685-2.339C34.42,26.534,34.384,26.511,34.356,26.481z"/>
		<path d="M37.057,27.026c-0.222,0.098-0.457,0.147-0.698,0.173l-0.669,2.284c0.134,0.01,0.269,0.019,0.407,0.019
			c0.665,0,1.292-0.122,1.881-0.365c0.505-0.209,0.939-0.5,1.326-0.845l-2.027-1.389C37.205,26.944,37.136,26.991,37.057,27.026z"/>
	</g>
</g>
</svg>
