<?xml version="1.0" encoding="utf-8"?>
<!-- Generator: Adobe Illustrator 17.0.0, SVG Export Plug-In . SVG Version: 6.00 Build 0) -->
<!DOCTYPE svg PUBLIC "-//W3C//DTD SVG 1.1//EN" "http://www.w3.org/Graphics/SVG/1.1/DTD/svg11.dtd">
<svg version="1.1" id="Layer_1" xmlns="http://www.w3.org/2000/svg" xmlns:xlink="http://www.w3.org/1999/xlink" x="0px" y="0px" viewBox="0 0 56.69 56.69" enable-background="new 0 0 56.69 56.69" xml:space="preserve">
	<rect opacity="0" fill="#121212" width="56.69" height="56.69" />
	<g>
		<g>
			<path fill="#131313" d="M47.101,41.388h-4.506v-3.727l-0.1-0.408c-0.901,1.294-2.028,2.336-3.38,3.128
			c-1.352,0.792-2.878,1.188-4.581,1.188c-1.802,0-3.396-0.332-4.781-0.994c-1.385-0.662-2.553-1.559-3.504-2.692
			c-0.951-1.131-1.677-2.441-2.178-3.929c-0.501-1.487-0.751-3.039-0.751-4.656c0-1.552,0.258-3.047,0.776-4.487
			c0.517-1.438,1.252-2.699,2.203-3.783c0.951-1.083,2.111-1.956,3.48-2.619c1.368-0.662,2.904-0.994,4.606-0.994
			c1.735,0,3.287,0.405,4.656,1.213c1.368,0.808,2.52,1.891,3.455,3.249l0.1-0.401l1.8-2.491l2.706-1.491V41.388z M34.546,37.279
			c1.173,0,2.204-0.207,3.092-0.622c0.887-0.415,1.641-0.983,2.259-1.705c0.618-0.721,1.086-1.551,1.403-2.488
			c0.317-0.937,0.476-1.943,0.476-3.018c0-1.044-0.159-2.035-0.476-2.972c-0.317-0.936-0.785-1.758-1.403-2.465
			c-0.618-0.706-1.379-1.267-2.283-1.682c-0.903-0.415-1.926-0.622-3.068-0.622c-1.11,0-2.101,0.215-2.972,0.645
			c-0.872,0.431-1.609,1.006-2.211,1.728c-0.603,0.722-1.063,1.543-1.379,2.465c-0.317,0.921-0.475,1.889-0.475,2.903
			s0.158,1.989,0.475,2.926c0.317,0.937,0.769,1.774,1.356,2.511c0.586,0.737,1.315,1.321,2.188,1.751
			C32.398,37.064,33.404,37.279,34.546,37.279z" />
			<g>
				<path fill="#131313" d="M50.247,15.074c-2.751-0.863-6.553-0.4-8.504,2.921c-0.548,0.934-0.958,1.922-1.297,2.951
				c-0.092-0.046-0.16-0.064-0.16-0.083c-0.063-1.741,0.16-3.42,0.984-4.995c1.055-2.018,2.726-3.158,4.929-3.585
				c1.811-0.351,3.647-0.35,5.479-0.396c0.917-0.023,1.833-0.056,2.744-0.166c0.593-0.072,1.175-0.184,1.734-0.414
				c0.518-0.212,0.588-0.143,0.505,0.433c-0.157,1.09-0.373,2.171-0.665,3.231c-0.482,1.751-1.076,3.461-2.078,4.999
				c-2.054,3.154-4.885,4.269-8.583,3.707c-0.841-0.128-1.652-0.376-2.457-0.652c-0.463-0.159-0.646-0.45-0.622-0.933
				c0.102-2.073,1.008-3.734,2.576-5.052c0.901-0.757,1.895-1.358,3.052-1.64C48.632,15.218,49.418,15.313,50.247,15.074z" />
				<path fill="#131313" d="M41.688,13.793c0.208-1.003,0.937-1.711,1.349-2.595c-0.148-0.095-0.282-0.008-0.366,0.061
				c-0.935,0.778-1.787,1.624-2.388,2.705c-0.796,1.433-0.976,2.947-0.642,4.525c0.127,0.599,0.054,1.186,0.057,1.779
				c0,0.11-0.002,0.254-0.137,0.272c-0.065,0.009-0.159-0.083-0.215-0.149c-0.421-0.49-0.757-1.039-1.035-1.618
				c-1.24-2.588-1.043-5.049,0.641-7.394c1.142-1.591,2.544-2.946,3.862-4.378c0.915-0.994,1.872-1.955,2.378-3.253
				c0.133-0.342,0.295-0.345,0.537-0.015c0.42,0.573,0.824,1.159,1.209,1.755c1.05,1.623,1.962,3.315,2.509,5.182
				c0.194,0.664,0.179,0.691-0.521,0.729c-1.795,0.098-3.56,0.32-5.212,1.104C42.989,12.85,42.349,13.317,41.688,13.793z" />
			</g>
		</g>
		<path fill="#121212" d="M25.802,38.302c-0.999-1.188-1.761-2.563-2.286-4.125c-0.526-1.561-0.789-3.191-0.789-4.889
		c0-1.63,0.271-3.2,0.815-4.711c0.401-1.117,0.929-2.13,1.58-3.043c-0.254-0.698-0.573-1.343-0.974-1.92
		c-0.644-0.925-1.512-1.661-2.602-2.206c-1.09-0.545-2.446-0.818-4.064-0.818c-1.256,0-2.446,0.232-3.569,0.694
		c-1.124,0.463-2.049,1.239-2.776,2.33h-0.099v-2.231h-6.94v24.338h6.94V30.365c0-0.726,0.025-1.528,0.074-2.404
		c0.049-0.875,0.206-1.693,0.471-2.454c0.264-0.76,0.677-1.396,1.239-1.909c0.561-0.512,1.355-0.768,2.379-0.768
		c0.991,0,1.743,0.215,2.255,0.644c0.512,0.43,0.875,0.966,1.09,1.611c0.214,0.644,0.339,1.363,0.372,2.156
		c0.033,0.793,0.05,1.554,0.05,2.28v12.199h6.939v-3.307C25.873,38.376,25.835,38.342,25.802,38.302z" />
	</g>
</svg>
